<svg xmlns="http://www.w3.org/2000/svg"  viewBox="0 0 120 120" width="200px" height="200px" baseProfile="basic"><circle cx="90.5" cy="71.5" r="10.5" opacity=".35"/><path fill="#ffc400" d="M49,109h38V66c0,0,7-16,7-29c-6,0-45,0-45,0V109z"/><circle cx="64" cy="36" r="30" fill="#ffc400"/><circle cx="90.5" cy="68.5" r="10.5" fill="#ffc400"/><circle cx="37" cy="36" r="9" fill="#ffc400"/><path d="M46.533,106c10.052,0,18.2-8.059,18.2-18h-36.4C28.333,97.941,36.482,106,46.533,106z" opacity=".35"/><path fill="#ffa400" d="M46.5,103C56.717,103,65,94.941,65,85H28C28,94.941,36.283,103,46.5,103z"/><circle cx="37.5" cy="55" r="13.5" opacity=".35"/><circle cx="37.5" cy="52" r="13.5" fill="#a4e2f1"/><path d="M44,67c-10.706,0-19.705,7.645-21,18c0,0.887,0,2.108,0,3h41.758C64.849,87,65,85.812,65,85 C63.597,74.763,54.622,67,44,67z" opacity=".35"/><path fill="#ffa400" d="M44,64c-11.598,0-21,9.402-21,21h42C65,73.402,55.598,64,44,64z"/><path fill="#ffc400" d="M70,70H32c-3.314,0-6-2.686-6-6v0c0-3.314,2.686-6,6-6h38V70z"/><circle cx="56.5" cy="54.5" r="13.5" opacity=".35"/><circle cx="56.5" cy="52.5" r="13.5" fill="#a4e2f1"/><circle cx="56" cy="55" r="3" opacity=".35"/><circle cx="56" cy="53" r="3" fill="#0037ff"/><circle cx="34" cy="54" r="3" opacity=".35"/><rect width="38" height="4" x="49" y="109" opacity=".35"/><circle cx="34" cy="52" r="3" fill="#0037ff"/><polygon points="94.017,58.26 93.046,46.983 87.704,51.712 84.965,45.124 79.163,54.842 74.87,52.279 85.766,34.028 89.632,43.327 97.175,36.653 98.998,57.83" opacity=".35"/><polygon fill="#0037ff" points="94.017,55.26 93.046,43.983 87.704,48.712 84.965,42.124 79.163,51.842 74.87,49.279 85.766,31.028 89.632,40.327 97.175,33.653 98.998,54.83"/></svg>